<svg width="20" height="20" viewBox="0 0 20 20" fill="none" xmlns="http://www.w3.org/2000/svg">
<path d="M17.5 -0.000488281H2.5C1.12083 -0.000488281 0 1.12034 0 2.49951V17.4995C0 18.8778 1.12083 19.9995 2.5 19.9995H17.5C18.8783 19.9995 20 18.8778 20 17.4995V2.49951C20 1.12034 18.8783 -0.000488281 17.5 -0.000488281Z" fill="#3B5999"/>
<path d="M13.75 10.0003V7.50038C13.75 6.8104 14.31 6.87539 15 6.87539H16.25V3.75049H13.75C11.6783 3.75049 10 5.42877 10 7.50038V10.0003H7.5V13.1252H10V20H13.75V13.1252H15.625L16.875 10.0003H13.75Z" fill="white"/>
</svg>
