<svg width="20" height="20" viewBox="0 0 20 20" fill="none" xmlns="http://www.w3.org/2000/svg">
<path d="M10 19.9995C15.5228 19.9995 20 15.5224 20 9.99951C20 4.47666 15.5228 -0.000488281 10 -0.000488281C4.47715 -0.000488281 0 4.47666 0 9.99951C0 15.5224 4.47715 19.9995 10 19.9995Z" fill="#273B7A"/>
<path d="M19.7748 12.1161L13.6607 6.00244L8.5633 6.40928L5.95947 8.78603L6.29361 13.9562L12.0827 19.7817C15.9229 18.9681 18.9485 15.9512 19.7748 12.1161Z" fill="#121149"/>
<path d="M10.2183 9.08166V10.9982H13.2151C12.7901 12.3701 11.5117 13.3666 10.0003 13.3666C8.14182 13.3666 6.63514 11.8598 6.63514 10.0009C6.63506 8.14219 8.14166 6.63528 10.0002 6.63528C10.8687 6.63528 11.6578 6.96725 12.2549 7.50752L13.661 6.00191C12.6964 5.11822 11.4114 4.57861 10.0002 4.57861C7.00596 4.57861 4.57861 7.00624 4.57861 10.001C4.57861 12.9957 7.00596 15.4233 10.0002 15.4233C12.9945 15.4233 15.4218 12.9957 15.4218 10.001C15.4218 9.68726 15.3928 9.38061 15.3413 9.08166H10.2183Z" fill="#4285F4"/>
<path d="M10 6.63484C10.8686 6.63484 11.6577 6.96672 12.2547 7.50686L13.6608 6.00163C12.6963 5.11809 11.4113 4.57861 10 4.57861C7.92356 4.57861 6.12066 5.7463 5.20996 7.46026L6.86449 8.78516C7.35207 7.52787 8.57035 6.63484 10 6.63484Z" fill="#EA4335"/>
<path d="M6.63509 10.001C6.63509 9.57217 6.71837 9.16361 6.86465 8.78647L5.21013 7.46143C4.8076 8.21912 4.57861 9.08318 4.57861 10.001C4.57861 10.9231 4.80951 11.7911 5.21552 12.5513L6.86024 11.2035C6.71696 10.8295 6.63509 10.4253 6.63509 10.001Z" fill="#FBBC05"/>
<path d="M11.8714 12.7954C11.3362 13.1544 10.6935 13.3657 10.0006 13.3657C8.56629 13.3657 7.34492 12.4669 6.86055 11.2031L5.21582 12.5508C6.1284 14.2591 7.92836 15.4219 10.0005 15.4219C11.3462 15.4219 12.5764 14.9306 13.5242 14.1189L11.8714 12.7954Z" fill="#34A853"/>
<path d="M15.4217 10.0003C15.4217 9.6868 15.3927 9.38033 15.3412 9.08154H10.2183V10.997H13.215C12.9849 11.7395 12.5031 12.3701 11.871 12.794L13.5238 14.1172C14.685 13.1232 15.4217 11.6482 15.4217 10.0003Z" fill="#4285F4"/>
</svg>
