<svg width="20" height="20" viewBox="0 0 20 20" fill="none" xmlns="http://www.w3.org/2000/svg">
<path d="M19.6576 3.57643C19.4756 1.87097 18.1285 0.523753 16.4227 0.341886C12.1451 -0.114613 7.85492 -0.114613 3.57742 0.341886C1.87164 0.523905 0.524445 1.87097 0.342407 3.57643C-0.114136 7.85351 -0.114136 12.1434 0.342407 16.4205C0.524445 18.1261 1.87164 19.4732 3.57727 19.6552C7.85477 20.1117 12.1451 20.1117 16.4227 19.6552C18.1285 19.4732 19.4756 18.1261 19.6576 16.4205C20.1141 12.1434 20.1141 7.85366 19.6576 3.57643Z" fill="url(#paint0_radial_4_82)"/>
<path d="M18.5699 4.30084C18.4085 2.78755 17.2131 1.5922 15.6995 1.43063C11.9037 1.02573 8.09661 1.02573 4.30083 1.43063C2.78731 1.5922 1.59178 2.78755 1.43019 4.30084C1.02522 8.09604 1.02522 11.9025 1.43019 15.6976C1.59178 17.211 2.78731 18.4064 4.30083 18.5678C8.09661 18.9728 11.9037 18.9728 15.6993 18.5678C17.213 18.4064 18.4085 17.211 18.5699 15.6976C18.9751 11.9025 18.9751 8.09604 18.5699 4.30084Z" fill="url(#paint1_linear_4_82)"/>
<path d="M0.299316 16.0054C0.313049 16.1436 0.32724 16.2819 0.342041 16.4202C0.524078 18.1261 1.87128 19.4735 3.57706 19.6556C7.85455 20.1122 12.1449 20.1122 16.4224 19.6556C18.1281 19.4735 19.4752 18.1261 19.6572 16.4202C19.672 16.2819 19.6862 16.1436 19.7001 16.0054H0.299316Z" fill="url(#paint2_linear_4_82)"/>
<path d="M19.6575 16.4231C19.9029 14.125 20.0161 11.8232 19.9978 9.52174L15.4262 4.95083C14.8551 4.29892 14.0209 3.89202 13.0407 3.85678C11.0248 3.78415 9.0026 3.78782 6.98645 3.85708C5.31195 3.91475 4.14099 5.04009 3.8407 6.69406C3.78775 6.98608 3.75601 7.2819 3.71436 7.57605V12.4249C3.7374 12.5821 3.77127 12.7385 3.7818 12.8965C3.84894 13.9025 4.26245 14.7642 4.92453 15.3472L9.57663 19.9985C11.8597 20.0145 14.1428 19.901 16.4226 19.6577C18.1284 19.4757 19.4755 18.1287 19.6575 16.4231Z" fill="url(#paint3_linear_4_82)"/>
<path d="M19.6574 16.4208C19.4756 18.1263 18.1281 19.4738 16.4226 19.6557C14.1431 19.8989 11.8594 20.0126 9.57672 19.9966L4.93164 15.3514C5.47012 15.8228 6.17203 16.1098 6.98654 16.1405C9.00223 16.2162 11.0249 16.2142 13.0406 16.1415C14.8637 16.0756 16.183 14.7263 16.2399 12.9031C16.3007 10.9674 16.3007 9.02659 16.2399 7.09084C16.214 6.24977 15.9187 5.50971 15.4292 4.94971L19.9979 9.51839C20.0159 11.8199 19.9027 14.1223 19.6574 16.4208Z" fill="url(#paint4_linear_4_82)"/>
<path d="M12.3602 7.83455C11.7746 7.19693 10.9343 6.79688 10.0003 6.79688C8.2312 6.79688 6.79688 8.2311 6.79688 10.0001C6.79688 10.934 7.19696 11.7743 7.83463 12.3598L15.2463 19.771C15.6386 19.7368 16.0309 19.6988 16.4229 19.657C18.1287 19.475 19.4759 18.1279 19.6579 16.4222C19.6997 16.0303 19.7377 15.638 19.7719 15.2457L12.3602 7.83455Z" fill="url(#paint5_linear_4_82)"/>
<path d="M19.9613 12.1544L13.9964 6.18801C13.8572 6.00531 13.6379 5.88672 13.3906 5.88672C12.9698 5.88672 12.6284 6.228 12.6284 6.6491C12.6284 6.89652 12.747 7.11584 12.9296 7.25504L19.8547 14.1821C19.9017 13.5064 19.9372 12.8304 19.9613 12.1544Z" fill="url(#paint6_linear_4_82)"/>
<path d="M3.71436 7.57581C3.75601 7.28168 3.78775 6.98587 3.8407 6.69388C4.14084 5.04001 5.31195 3.91474 6.98645 3.85708C9.0026 3.78782 11.0248 3.78416 13.0407 3.85677C14.8632 3.92237 16.1831 5.27159 16.24 7.09434C16.3006 9.02983 16.3006 10.9701 16.24 12.9055C16.1831 14.7283 14.8637 16.0774 13.0408 16.1431C11.025 16.2159 9.00229 16.2177 6.9866 16.142C5.16379 16.0735 3.90372 14.7213 3.7818 12.8958C3.77127 12.7379 3.7374 12.5814 3.71436 12.4242C3.71436 10.808 3.71436 9.19185 3.71436 7.57581ZM10.0016 15.0629C10.9241 15.0629 11.8476 15.0905 12.7689 15.0564C14.2135 15.0029 15.102 14.141 15.1357 12.6981C15.1775 10.9002 15.1775 9.09986 15.1357 7.30182C15.102 5.85924 14.2129 4.97715 12.7689 4.94649C10.9362 4.90774 9.10147 4.90804 7.26874 4.94649C5.83579 4.97654 4.94467 5.84078 4.90576 7.26749C4.85632 9.08811 4.85632 10.9119 4.90576 12.7325C4.94467 14.1591 5.83579 15.0034 7.26889 15.0564C8.17862 15.0903 9.09064 15.0629 10.0016 15.0629Z" fill="url(#paint7_linear_4_82)"/>
<path d="M3.71436 7.57581C3.75601 7.28168 3.78775 6.98587 3.8407 6.69388C4.14084 5.04001 5.31195 3.91474 6.98645 3.85708C9.0026 3.78782 11.0248 3.78416 13.0407 3.85677C14.8632 3.92237 16.1831 5.27159 16.24 7.09434C16.3006 9.02983 16.3006 10.9701 16.24 12.9055C16.1831 14.7283 14.8637 16.0774 13.0408 16.1431C11.025 16.2159 9.00229 16.2177 6.9866 16.142C5.16379 16.0735 3.90372 14.7213 3.7818 12.8958C3.77127 12.7379 3.7374 12.5814 3.71436 12.4242C3.71436 10.808 3.71436 9.19185 3.71436 7.57581ZM10.0016 15.0629C10.9241 15.0629 11.8476 15.0905 12.7689 15.0564C14.2135 15.0029 15.102 14.141 15.1357 12.6981C15.1775 10.9002 15.1775 9.09986 15.1357 7.30182C15.102 5.85924 14.2129 4.97715 12.7689 4.94649C10.9362 4.90774 9.10147 4.90804 7.26874 4.94649C5.83579 4.97654 4.94467 5.84078 4.90576 7.26749C4.85632 9.08811 4.85632 10.9119 4.90576 12.7325C4.94467 14.1591 5.83579 15.0034 7.26889 15.0564C8.17862 15.0903 9.09064 15.0629 10.0016 15.0629Z" fill="white"/>
<path d="M10.0003 6.79541C8.2312 6.79541 6.79688 8.2297 6.79688 9.99895C6.79688 11.7683 8.2312 13.2026 10.0003 13.2026C11.7696 13.2026 13.2037 11.7683 13.2037 9.99895C13.2037 8.2297 11.7696 6.79541 10.0003 6.79541ZM10.0003 12.0996C8.84018 12.0996 7.89978 11.1592 7.89978 9.99895C7.89978 8.83873 8.84018 7.89825 10.0003 7.89825C11.1604 7.89825 12.1008 8.83873 12.1008 9.99895C12.1008 11.1592 11.1604 12.0996 10.0003 12.0996Z" fill="white"/>
<path d="M14.1526 6.64973C14.1526 7.07023 13.8114 7.41113 13.3906 7.41113C12.9698 7.41113 12.6284 7.07023 12.6284 6.64973C12.6284 6.22909 12.9698 5.88818 13.3906 5.88818C13.8114 5.88818 14.1526 6.22909 14.1526 6.64973Z" fill="white"/>
<defs>
<radialGradient id="paint0_radial_4_82" cx="0" cy="0" r="1" gradientUnits="userSpaceOnUse" gradientTransform="translate(4.09989 17.4762) scale(22.0565 22.0543)">
<stop stop-color="#FAE100"/>
<stop offset="0.0544" stop-color="#FADC04"/>
<stop offset="0.1167" stop-color="#FBCE0E"/>
<stop offset="0.1829" stop-color="#FCB720"/>
<stop offset="0.2514" stop-color="#FE9838"/>
<stop offset="0.3054" stop-color="#FF7950"/>
<stop offset="0.4922" stop-color="#FF1C74"/>
<stop offset="1" stop-color="#6C1CD1"/>
</radialGradient>
<linearGradient id="paint1_linear_4_82" x1="7.67095" y1="8.68932" x2="-26.209" y2="-10.371" gradientUnits="userSpaceOnUse">
<stop stop-color="#A1B5D8" stop-opacity="0"/>
<stop offset="0.3094" stop-color="#90A2BD" stop-opacity="0.309804"/>
<stop offset="0.7554" stop-color="#7C8B9C" stop-opacity="0.756863"/>
<stop offset="1" stop-color="#748290"/>
</linearGradient>
<linearGradient id="paint2_linear_4_82" x1="9.99965" y1="17.6526" x2="9.99965" y2="20.7706" gradientUnits="userSpaceOnUse">
<stop stop-color="#FAE100" stop-opacity="0"/>
<stop offset="0.3068" stop-color="#FCA800" stop-opacity="0.305882"/>
<stop offset="0.6275" stop-color="#FE7300" stop-opacity="0.627451"/>
<stop offset="0.8685" stop-color="#FF5200" stop-opacity="0.866667"/>
<stop offset="1" stop-color="#FF4500"/>
</linearGradient>
<linearGradient id="paint3_linear_4_82" x1="8.86212" y1="8.83548" x2="3.91312" y2="3.88579" gradientUnits="userSpaceOnUse">
<stop stop-color="#833AB4" stop-opacity="0"/>
<stop offset="1" stop-color="#833AB4"/>
</linearGradient>
<linearGradient id="paint4_linear_4_82" x1="13.7069" y1="18.2905" x2="11.2363" y2="6.64395" gradientUnits="userSpaceOnUse">
<stop stop-color="#833AB4" stop-opacity="0"/>
<stop offset="1" stop-color="#833AB4"/>
</linearGradient>
<linearGradient id="paint5_linear_4_82" x1="14.6474" y1="14.6468" x2="4.72524" y2="4.72402" gradientUnits="userSpaceOnUse">
<stop stop-color="#833AB4" stop-opacity="0"/>
<stop offset="1" stop-color="#833AB4"/>
</linearGradient>
<linearGradient id="paint6_linear_4_82" x1="15.3832" y1="8.64219" x2="12.101" y2="5.36091" gradientUnits="userSpaceOnUse">
<stop stop-color="#833AB4" stop-opacity="0"/>
<stop offset="1" stop-color="#833AB4"/>
</linearGradient>
<linearGradient id="paint7_linear_4_82" x1="13.9709" y1="6.05843" x2="5.88212" y2="14.1489" gradientUnits="userSpaceOnUse">
<stop stop-color="#833AB4"/>
<stop offset="0.0922" stop-color="#9C3495"/>
<stop offset="0.2927" stop-color="#DC2546"/>
<stop offset="0.392" stop-color="#FD1D1D"/>
<stop offset="0.5589" stop-color="#FC6831"/>
<stop offset="0.6887" stop-color="#FC9B40"/>
<stop offset="0.7521" stop-color="#FCAF45"/>
<stop offset="0.7806" stop-color="#FDB750"/>
<stop offset="0.8656" stop-color="#FECB6A"/>
<stop offset="0.9415" stop-color="#FFD87A"/>
<stop offset="1" stop-color="#FFDC80"/>
</linearGradient>
</defs>
</svg>
