<svg width="24" height="21" viewBox="0 0 24 21" fill="none" xmlns="http://www.w3.org/2000/svg">
<path d="M7.68137 9.08321C7.09025 8.91303 6.49914 8.82668 5.92414 8.82668C5.03621 8.82668 4.29531 9.02959 3.72081 9.27807C4.27467 7.25046 5.60517 3.75187 8.25561 3.35787C8.50107 3.32137 8.70222 3.14388 8.76918 2.90497L9.34846 0.833054C9.3973 0.657835 9.36835 0.47028 9.2684 0.318222C9.16846 0.166164 9.00784 0.0647078 8.82784 0.0400361C8.63223 0.0133504 8.43284 -0.000244141 8.23522 -0.000244141C5.05384 -0.000244141 1.90317 3.32036 0.57367 8.07495C-0.206759 10.8644 -0.4356 15.058 1.48677 17.6977C2.56251 19.1747 4.13192 19.9634 6.15147 20.0422C6.15978 20.0425 6.16784 20.0427 6.17614 20.0427C8.66798 20.0427 10.8776 18.3645 11.5498 15.9621C11.9513 14.5258 11.7698 13.0196 11.0382 11.7198C10.3144 10.4346 9.12239 9.49785 7.68137 9.08321Z" fill="black"/>
<path d="M23.2796 11.7199C22.5558 10.4345 21.3638 9.49773 19.9228 9.0831C19.3317 8.91292 18.7405 8.82657 18.1658 8.82657C17.2779 8.82657 16.5367 9.02948 15.9622 9.27795C16.5161 7.25037 17.8466 3.75182 20.4973 3.35783C20.7427 3.32133 20.9436 3.14385 21.0108 2.90494L21.5901 0.833044C21.639 0.657827 21.61 0.470274 21.5101 0.318218C21.4104 0.166162 21.2498 0.064707 21.0695 0.0400356C20.8741 0.0133502 20.6748 -0.000244141 20.4769 -0.000244141C17.2955 -0.000244141 14.1448 3.32032 12.8151 8.07484C12.0349 10.8642 11.8061 15.0578 13.7287 17.6979C14.8042 19.1747 16.3738 19.9637 18.3931 20.0422C18.4014 20.0425 18.4095 20.0427 18.4181 20.0427C20.9096 20.0427 23.1195 18.3646 23.7917 15.9621C24.1927 14.5259 24.011 13.0194 23.2796 11.7199Z" fill="black"/>
</svg>
