<svg width="20" height="20" viewBox="0 0 20 20" fill="none" xmlns="http://www.w3.org/2000/svg">
<path d="M16.4227 19.6571C12.1452 20.1136 7.85477 20.1136 3.57727 19.6571C1.87164 19.4751 0.524445 18.1279 0.342407 16.4221C-0.114136 12.1446 -0.114136 7.85428 0.342407 3.57678C0.524445 1.87115 1.87164 0.523956 3.57727 0.341919C7.85477 -0.114624 12.1451 -0.114624 16.4226 0.341919C18.1284 0.523956 19.4756 1.87115 19.6576 3.57678C20.1141 7.85428 20.1141 12.1446 19.6576 16.4221C19.4756 18.1279 18.1285 19.4751 16.4227 19.6571Z" fill="url(#paint0_linear_4_98)"/>
<path d="M18.5699 4.30256C18.4085 2.78915 17.2131 1.5937 15.6995 1.43212C11.9037 1.02718 8.09661 1.02718 4.30083 1.43212C2.78731 1.5937 1.59178 2.78915 1.43019 4.30256C1.02522 8.09808 1.02522 11.9049 1.43019 15.7003C1.59178 17.2138 2.78731 18.4093 4.30083 18.5707C8.09661 18.9758 11.9037 18.9758 15.6993 18.5707C17.213 18.4093 18.4085 17.2138 18.5699 15.7003C18.9751 11.9049 18.9751 8.09808 18.5699 4.30256Z" fill="url(#paint1_linear_4_98)"/>
<path d="M0.299805 16.0093C0.313538 16.1475 0.327728 16.2857 0.342529 16.4239C0.524567 18.129 1.87177 19.4757 3.57755 19.6577C7.85504 20.1141 12.1454 20.1141 16.4229 19.6577C18.1286 19.4757 19.4757 18.129 19.6577 16.4239C19.6725 16.2857 19.6867 16.1475 19.7006 16.0093H0.299805Z" fill="url(#paint2_linear_4_98)"/>
<path d="M19.9959 9.29835L15.8445 5.1475C15.3792 5.41343 14.9692 5.56097 14.6604 5.64275C14.4867 5.68928 14.345 5.71461 14.243 5.72849C13.7749 5.24866 13.1212 4.95068 12.3976 4.95068C10.974 4.95068 9.81967 6.10473 9.81967 7.52853C9.81967 7.57994 9.82105 7.63075 9.8244 7.6814C9.83127 7.80483 9.84699 7.92613 9.87125 8.04406C9.27692 8.03522 7.34516 7.87654 5.50281 6.29743C5.50266 6.29743 5.50266 6.29728 5.50266 6.29728H5.5025L4.63367 5.42838C4.63367 5.42838 3.61438 7.20721 5.11295 8.55701C5.17871 8.6304 5.25104 8.70287 5.33023 8.77412C5.33649 8.78114 5.34305 8.788 5.3493 8.79502C5.15262 8.78175 4.56104 8.72285 4.21863 8.48103C4.21863 8.48103 4.14981 9.56825 5.05573 10.3686L5.78723 11.1063C5.56445 11.1248 5.31802 11.1204 5.14667 11.0453C5.14667 11.0453 5.29834 11.6893 5.88458 12.2047L6.90936 13.2347C6.29459 13.5928 5.21838 14.0409 3.80176 13.9264L10.0183 20C12.1543 19.9994 14.2902 19.8853 16.4229 19.6576C18.1287 19.4756 19.4759 18.1286 19.6579 16.4231C19.9111 14.0506 20.0235 11.6742 19.9959 9.29835Z" fill="url(#paint3_linear_4_98)"/>
<path d="M16.1984 6.14866C15.7559 6.38011 15.0894 6.48706 14.8685 6.51788C14.8666 6.5072 14.8648 6.49698 14.863 6.48676C15.6142 6.02218 15.8441 5.1475 15.8441 5.1475C15.3789 5.41343 14.9689 5.56096 14.66 5.64274C14.4864 5.68927 14.3446 5.71445 14.2427 5.72849C13.7746 5.2485 13.1209 4.95068 12.3973 4.95068C10.9737 4.95068 9.81934 6.10457 9.81934 7.5285C9.81934 7.57977 9.82071 7.63073 9.82407 7.68123C9.83093 7.80466 9.84665 7.92595 9.87091 8.04389C9.18182 8.03366 6.69449 7.82235 4.63333 5.42838C4.63333 5.42838 3.48557 7.43071 5.41519 8.7985C5.41519 8.7985 4.63333 8.77409 4.21829 8.481C4.21829 8.481 4.09622 10.4104 6.31866 11.0207C6.31866 11.0207 5.53726 11.2163 5.14618 11.0452C5.14618 11.0452 5.53711 12.7058 7.491 12.8282C7.491 12.8282 6.08963 14.111 3.80127 13.9264C4.92676 14.6389 6.26114 15.0513 7.6918 15.0513C11.7145 15.0513 14.9756 11.7907 14.9756 7.7685C14.9756 7.7183 14.9751 7.66811 14.9741 7.61791C14.9751 7.58816 14.9756 7.55856 14.9756 7.5285C14.9756 7.5076 14.9751 7.4867 14.9748 7.4658C15.7185 6.97025 16.1984 6.14866 16.1984 6.14866Z" fill="white"/>
<defs>
<linearGradient id="paint0_linear_4_98" x1="6.64039" y1="2.81147" x2="11.699" y2="13.6345" gradientUnits="userSpaceOnUse">
<stop stop-color="#00C3FF"/>
<stop offset="1" stop-color="#00B0ED"/>
</linearGradient>
<linearGradient id="paint1_linear_4_98" x1="14.2299" y1="12.2703" x2="-14.8266" y2="-3.31772" gradientUnits="userSpaceOnUse">
<stop stop-color="#00B0ED" stop-opacity="0"/>
<stop offset="1" stop-color="#00A2CE"/>
</linearGradient>
<linearGradient id="paint2_linear_4_98" x1="10.0001" y1="17.0862" x2="10.0001" y2="19.706" gradientUnits="userSpaceOnUse">
<stop stop-color="#00B0ED" stop-opacity="0"/>
<stop offset="1" stop-color="#00A2CE"/>
</linearGradient>
<linearGradient id="paint3_linear_4_98" x1="19.1182" y1="18.8311" x2="9.34867" y2="9.06048" gradientUnits="userSpaceOnUse">
<stop stop-color="#00B0ED" stop-opacity="0"/>
<stop offset="1" stop-color="#00A2CE"/>
</linearGradient>
</defs>
</svg>
